<?xml version="1.0" encoding="utf-8"?>
<!-- Generator: Adobe Illustrator 24.0.1, SVG Export Plug-In . SVG Version: 6.00 Build 0)  -->
<svg version="1.1" id="Слой_1" xmlns="http://www.w3.org/2000/svg" xmlns:xlink="http://www.w3.org/1999/xlink" x="0px" y="0px"
	 viewBox="0 0 88 28" style="enable-background:new 0 0 88 28;" xml:space="preserve">
<style type="text/css">
	.st0{enable-background:new    ;}
</style>
<g class="st0">
	<path d="M2,28c-0.5,0-1-0.2-1.3-0.5c-0.3-0.3-0.5-0.7-0.5-1.3V1.6c0-0.5,0.2-1,0.5-1.3C1,0,1.5-0.1,2-0.1c0.5,0,1,0.2,1.3,0.5
		c0.3,0.3,0.5,0.8,0.5,1.3v24.6c0,0.5-0.2,1-0.5,1.3C3,27.8,2.5,28,2,28z M3.7,20.8l-2.2-2.4l11.1-9.9C12.9,8.2,13.3,8,13.7,8
		c0.4,0,0.8,0.2,1.1,0.6c0.3,0.4,0.5,0.8,0.5,1.2c0,0.4-0.2,0.8-0.6,1.2L3.7,20.8z M14.9,27.8c-0.4,0.3-0.8,0.4-1.3,0.4
		c-0.5,0-0.9-0.2-1.2-0.6l-7.3-9l2.5-2.4l7.5,9.2c0.3,0.4,0.5,0.8,0.4,1.2S15.3,27.5,14.9,27.8z"/>
	<path d="M27.1,28.1c-1.8,0-3.3-0.4-4.7-1.3c-1.4-0.9-2.5-2.1-3.3-3.6c-0.8-1.5-1.2-3.2-1.2-5.1c0-1.9,0.4-3.6,1.3-5.1
		c0.9-1.5,2.1-2.7,3.6-3.6c1.5-0.9,3.2-1.3,5.1-1.3s3.6,0.4,5,1.3c1.5,0.9,2.7,2.1,3.5,3.6c0.9,1.5,1.3,3.2,1.3,5.1h-1.4
		c0,1.9-0.4,3.6-1.2,5.1c-0.8,1.5-1.9,2.7-3.3,3.6C30.5,27.7,28.9,28.1,27.1,28.1z M27.9,24.9c1.2,0,2.3-0.3,3.3-0.9
		s1.7-1.4,2.3-2.4c0.6-1,0.8-2.2,0.8-3.4c0-1.3-0.3-2.5-0.8-3.5c-0.6-1-1.3-1.8-2.3-2.4s-2.1-0.9-3.3-0.9c-1.2,0-2.3,0.3-3.3,0.9
		c-1,0.6-1.7,1.4-2.3,2.4c-0.6,1-0.8,2.2-0.8,3.5c0,1.3,0.3,2.4,0.8,3.4c0.6,1,1.3,1.8,2.3,2.4C25.6,24.6,26.7,24.9,27.9,24.9z
		 M35.9,28c-0.5,0-1-0.2-1.3-0.5c-0.3-0.3-0.5-0.8-0.5-1.3v-5.5l0.7-3.8l3,1.3v8c0,0.5-0.2,1-0.5,1.3C36.9,27.9,36.4,28,35.9,28z"/>
	<path d="M45.1,28c-0.5,0-1-0.2-1.3-0.5c-0.3-0.3-0.5-0.8-0.5-1.3V10.1c0-0.6,0.2-1,0.5-1.3c0.3-0.3,0.8-0.5,1.3-0.5
		c0.6,0,1,0.2,1.3,0.5c0.3,0.3,0.5,0.8,0.5,1.3v16.1c0,0.5-0.2,1-0.5,1.3C46.1,27.9,45.6,28,45.1,28z M59.9,28c-0.5,0-1-0.2-1.3-0.5
		c-0.3-0.3-0.5-0.8-0.5-1.3v-8.9c0-1.4-0.3-2.5-0.8-3.3s-1.2-1.5-2-1.9c-0.9-0.4-1.8-0.6-2.9-0.6c-1,0-1.9,0.2-2.7,0.6
		c-0.8,0.4-1.5,1-1.9,1.6c-0.5,0.7-0.7,1.5-0.7,2.4h-2.3c0-1.5,0.4-2.9,1.1-4c0.7-1.2,1.7-2.1,3-2.8c1.3-0.7,2.7-1,4.3-1
		c1.7,0,3.1,0.4,4.4,1.1s2.3,1.7,3.1,3.1c0.8,1.4,1.1,3,1.1,5v8.9c0,0.5-0.2,1-0.5,1.3C60.8,27.9,60.4,28,59.9,28z"/>
	<path d="M76.7,28.1c-1.9,0-3.7-0.4-5.1-1.3s-2.7-2-3.5-3.5s-1.3-3.2-1.3-5.2c0-2,0.4-3.7,1.3-5.2c0.9-1.5,2-2.7,3.5-3.5
		s3.2-1.3,5.1-1.3c1.9,0,3.6,0.4,5.1,1.3s2.7,2,3.5,3.5c0.9,1.5,1.3,3.2,1.3,5.2c0,1.9-0.4,3.7-1.3,5.2c-0.8,1.5-2,2.7-3.5,3.5
		C80.4,27.7,78.6,28.1,76.7,28.1z M76.7,24.9c1.2,0,2.4-0.3,3.3-0.9c1-0.6,1.7-1.4,2.2-2.4c0.5-1,0.8-2.2,0.8-3.5
		c0-1.3-0.3-2.5-0.8-3.5c-0.5-1-1.3-1.8-2.2-2.4c-1-0.6-2.1-0.9-3.3-0.9s-2.4,0.3-3.3,0.9c-1,0.6-1.7,1.4-2.3,2.4
		c-0.6,1-0.8,2.2-0.8,3.5c0,1.3,0.3,2.5,0.8,3.5c0.6,1,1.3,1.8,2.3,2.4C74.4,24.6,75.5,24.9,76.7,24.9z"/>
</g>
</svg>
